# xmcd CD database file generated by OrangeCD 6.2
#
# Track frame offsets:
#	150
#	16109
#	31293
#	47853
#	69188
#	81471
#	95635
#	115957
#	132784
#	146448
#	162432
#	178245
#
# Disc length: 2763 seconds
#
# Revision: 4
# Processed by: cddbd v1.5.2PL0 Copyright (c) Steve Scherf et al.
# Submitted via: OrangeCD 6.2
#
DISCID=a10ac90c
DTITLE=The Fortunate Sons - The Fortunate Sons
DYEAR=1900
DGENRE=
TTITLE0=All I Need
TTITLE1=Get Away
TTITLE2=Wasted Time
TTITLE3=Slave Chain
TTITLE4=Lucille
TTITLE5=Born Disguised
TTITLE6=Poets
TTITLE7=Over Again
TTITLE8=Starlight
TTITLE9=Say Nothing
TTITLE10=She Comes Around
TTITLE11=This Train
EXTD=For bookings and further information\ne-mail - band@fortunatesons.co.uk\nS
EXTD=am - +44(0)7743777716\nMike - +44(0)7866021145 
EXTT0=
EXTT1=
EXTT2=
EXTT3=
EXTT4=
EXTT5=
EXTT6=
EXTT7=
EXTT8=
EXTT9=
EXTT10=
EXTT11=
PLAYORDER=
